<svg t="1698409293443" class="icon" viewBox="0 0 1024 1024" version="1.1" xmlns="http://www.w3.org/2000/svg" p-id="9504" width="200" height="200"><path d="M520.94 199.44c-182.096 0-385.05 150.336-481.94 68.372L107.188 424c132.994-99.096 268.834-149.628 406.44-149.626 136.172 0.004 273 49.436 409.62 146.376l75.94-173.44C827.508 339.78 706.336 199.44 520.94 199.44z m-1.816 123.56c-80.98 0-146.186 65.206-146.186 146.188 0 80.98 65.204 146.188 146.186 146.188 80.98 0 146.186-65.206 146.186-146.188 0-80.98-65.206-146.188-146.188-146.188z m-118.812 0.94c-96.964 21.006-193.612 69.214-290.5 145.248 94.5 69.188 188 114.872 281.06 136.94-36.584-34.294-59.5-83.016-59.5-136.94 0-58.426 26.894-110.776 68.94-145.25z m241.5 3.31c39.808 34.466 65.06 85.336 65.06 141.94 0.004 54.4-23.344 103.474-60.496 137.81 92.57-21.432 185.772-66.732 280.25-137.312-96.304-72.606-191.12-119.88-284.814-142.44zM519.124 405c36.414 0 65.94 29.46 65.94 65.876 0 36.412-29.526 65.936-65.94 65.936-36.412 0-65.936-29.524-65.936-65.94 0-36.41 29.524-65.872 65.94-65.872zM107 513.188l-68 155.75c96.89-81.966 416.674-20.312 481.94 274.81C588.592 659.18 827.504 596.974 999.186 689.44L924 517.81c-112.36 78.94-225.136 124.712-338.06 137.44l-67.88 117.5-68.248-118.126c-114.934-14.01-229.19-61.9-342.812-141.44z" p-id="9505" fill="#ffffff"></path></svg>