<svg t="1698473751195" class="icon" viewBox="0 0 1024 1024" version="1.1" xmlns="http://www.w3.org/2000/svg" p-id="6305" width="200" height="200"><path d="M657.066667 691.2c8.533333-8.533333 21.333333-12.8 29.866666-4.266667s12.8 21.333333 4.266667 29.866667l-38.4 51.2-25.6 25.6c-64 51.2-157.866667 38.4-209.066667-25.6C311.466667 635.733333 256 529.066667 256 448 256 294.4 379.733333 170.666667 533.333333 170.666667S810.666667 294.4 810.666667 448c0 51.2-21.333333 110.933333-64 183.466667-4.266667 8.533333-17.066667 12.8-29.866667 8.533333-8.533333-4.266667-12.8-17.066667-8.533333-29.866667 38.4-64 55.466667-119.466667 55.466666-157.866666 0-128-106.666667-234.666667-234.666666-234.666667S298.666667 320 298.666667 448c0 68.266667 51.2 166.4 149.333333 294.4 38.4 46.933333 102.4 55.466667 149.333333 17.066667 8.533333-4.266667 12.8-12.8 17.066667-17.066667 17.066667-17.066667 29.866667-34.133333 42.666667-51.2z m-123.733334-115.2c-72.533333 0-128-55.466667-128-128s55.466667-128 128-128 128 55.466667 128 128-55.466667 128-128 128z m0-42.666667c46.933333 0 85.333333-38.4 85.333334-85.333333s-38.4-85.333333-85.333334-85.333333-85.333333 38.4-85.333333 85.333333 38.4 85.333333 85.333333 85.333333z" p-id="6306" fill="#ffffff"></path></svg>