<svg t="1698473618198" class="icon" viewBox="0 0 1024 1024" version="1.1" xmlns="http://www.w3.org/2000/svg" p-id="4439" width="200" height="200"><path d="M514.7 99.9c-138 0-250.3 115.2-250.3 256.8 0 34.7 6.9 66.3 22.7 101.4l1.9 3.5c201 388.7 204.3 388.7 225.7 388.7 20.3 0 20.3 0 228.6-368.3l4.3-7.7 2.8-5.3c19.8-37.7 29-73.7 29-113.2 0.1-138.7-121.1-255.9-264.7-255.9z m212 356.7s-1.7 3.3-2.5 4.7c-2 3.4-204.4 362.2-209.4 362.2-8.3 0-201.8-374.2-201.8-374.2l-2.2-4.1c-12.9-29-19.4-56.7-19.4-88.5 0-125.4 98-229.9 223.4-229.9s237.9 103.7 237.9 229c-0.1 36.8-9 68.4-26 100.8z" fill="#3259CE" p-id="4440"></path><path d="M955.5 767.2c-29.4-62.5-190.1-64.8-210.8-64.8h-0.6v0.1c-7.1 0.4-12.8 6.1-12.8 13.3s5.7 13 12.8 13.3v0.1c63.4 0 170.2 13.5 187.1 49.4 3.6 7.5 3 14.3-1.7 21.7-26.1 41.2-167 85.5-414.5 85.6-247.5-0.2-388.4-44.5-414.5-85.6-4.8-7.5-5.3-14.2-1.7-21.7 16.9-35.9 123.8-49.4 187.1-49.4 7.4-0.1 13.3-6 13.3-13.4s-6-13.3-13.3-13.4h-0.1c-18.9 0-181.7 1.9-211.3 64.8-7.5 15.9-6.3 32.3 3.4 47.6 37.8 59.5 209.3 97.9 437.2 98.1 227.9-0.2 399.5-38.6 437.2-98.1 9.5-15.2 10.7-31.7 3.2-47.6zM514.9 250.9c-66.9 0-121.2 54.3-121.2 121.2 0 7 1 14.6 2.2 21.3 0 0.1 0.2 0.1 0.3 0.1 1.4 5.9 6.5 10.3 12.8 10.3 7.4 0 13.4-6 13.4-13.4 0-1-0.4-2-0.6-2.9l0.2-0.1c-0.8-5-1.5-10-1.5-15.2 0-52 42.3-94.3 94.3-94.3s94.3 42.3 94.3 94.3-42.3 94.3-94.3 94.3c-23 0-43.9-8.6-60.3-22.4l-0.2 0.2c-2.3-1.9-5.1-3.1-8.3-3.1-7.4 0-13.4 6-13.4 13.4 0 4.2 2 7.8 5.1 10.3 0.1 0.1-0.1 0.2 0 0.3 21 17.5 47.6 28.2 77.1 28.2 66.9 0 121.2-54.3 121.2-121.2 0.1-67-54.2-121.3-121.1-121.3z" fill="#3259CE" p-id="4441"></path></svg>