<svg t="1698551526615" class="icon" viewBox="0 0 1024 1024" version="1.1" xmlns="http://www.w3.org/2000/svg" p-id="4420" width="200" height="200"><path d="M252.16 0m81.371429 0l356.937142 0q81.371429 0 81.371429 81.371429l0 55.588571q0 81.371429-81.371429 81.371429l-356.937142 0q-81.371429 0-81.371429-81.371429l0-55.588571q0-81.371429 81.371429-81.371429Z" fill="#ffffff" p-id="4421"></path><path d="M822.857143 120.32h-9.508572v22.674286c0 64.365714-47.36 116.845714-105.508571 116.845714H316.342857c-58.148571 0-105.508571-52.48-105.508571-116.845714V120.32H201.142857a103.862857 103.862857 0 0 0-103.497143 104.228571v694.857143A103.862857 103.862857 0 0 0 201.142857 1024h621.714286a103.862857 103.862857 0 0 0 103.497143-104.228571v-694.857143A103.862857 103.862857 0 0 0 822.857143 120.32z m-555.702857 283.428571H493.714286a37.668571 37.668571 0 0 1 0 75.337143H267.154286a37.668571 37.668571 0 0 1 0-75.337143z m489.691428 468.662858H267.154286a37.668571 37.668571 0 0 1 0-75.337143h489.691428a37.668571 37.668571 0 1 1 0 75.337143z m0-196.754286H267.154286a37.668571 37.668571 0 1 1 0-75.154286h489.691428a37.668571 37.668571 0 1 1 0 75.154286z" fill="#ffffff" p-id="4422"></path></svg>